{
    "asset" : {
        "generator" : "Khronos glTF Blender I/O v3.3.27",
        "version" : "2.0"
    },
    "extensionsUsed" : [
        "KHR_materials_unlit",
        "KHR_materials_specular",
        "KHR_materials_ior"
    ],
    "scene" : 0,
    "scenes" : [
        {
            "name" : "Scene",
            "nodes" : [
                0
            ]
        }
    ],
    "nodes" : [
        {
            "mesh" : 0,
            "name" : "Smol Mayura",
            "rotation" : [
                0,
                -0.3330433666706085,
                0,
                0.9429115056991577
            ]
        }
    ],
    "materials" : [
        {
            "alphaMode" : "BLEND",
            "extensions" : {
                "KHR_materials_unlit" : {}
            },
            "name" : "Mayura Color",
            "pbrMetallicRoughness" : {
                "baseColorTexture" : {
                    "index" : 0,
                    "texCoord" : 0
                },
                "metallicFactor" : 0,
                "roughnessFactor" : 0.9
            }
        },
        {
            "alphaMode" : "BLEND",
            "extensions" : {
                "KHR_materials_specular" : {
                    "specularColorFactor" : [
                        0,
                        0,
                        0
                    ]
                },
                "KHR_materials_ior" : {
                    "ior" : 1.4500000476837158
                }
            },
            "name" : "outline",
            "pbrMetallicRoughness" : {
                "baseColorFactor" : [
                    0,
                    0,
                    0,
                    1
                ],
                "metallicFactor" : 0,
                "roughnessFactor" : 0.5
            }
        }
    ],
    "meshes" : [
        {
            "extras" : {
                "targetNames" : [
                    "close"
                ]
            },
            "name" : "Circle.011",
            "primitives" : [
                {
                    "attributes" : {
                        "POSITION" : 0,
                        "NORMAL" : 1,
                        "TEXCOORD_0" : 2
                    },
                    "indices" : 3,
                    "material" : 0,
                    "targets" : [
                        {
                            "POSITION" : 4,
                            "NORMAL" : 5
                        }
                    ]
                },
                {
                    "attributes" : {
                        "POSITION" : 6,
                        "NORMAL" : 7,
                        "TEXCOORD_0" : 8
                    },
                    "indices" : 9,
                    "material" : 1,
                    "targets" : [
                        {
                            "POSITION" : 10,
                            "NORMAL" : 11
                        }
                    ]
                }
            ],
            "weights" : [
                0
            ]
        }
    ],
    "textures" : [
        {
            "sampler" : 0,
            "source" : 0
        }
    ],
    "images" : [
        {
            "mimeType" : "image/png",
            "name" : "Smol Mayura Colors",
            "uri" : "Smol%20Mayura%20Colors.png"
        }
    ],
    "accessors" : [
        {
            "bufferView" : 0,
            "componentType" : 5126,
            "count" : 66045,
            "max" : [
                1.3179042339324951,
                3.95802640914917,
                1.4841276407241821
            ],
            "min" : [
                -1.3179042339324951,
                -0.009360551834106445,
                -1.2920565605163574
            ],
            "type" : "VEC3"
        },
        {
            "bufferView" : 1,
            "componentType" : 5126,
            "count" : 66045,
            "type" : "VEC3"
        },
        {
            "bufferView" : 2,
            "componentType" : 5126,
            "count" : 66045,
            "type" : "VEC2"
        },
        {
            "bufferView" : 3,
            "componentType" : 5125,
            "count" : 324600,
            "type" : "SCALAR"
        },
        {
            "bufferView" : 4,
            "componentType" : 5126,
            "count" : 66045,
            "max" : [
                0.00014954805374145508,
                0.03167462348937988,
                0.018770217895507812
            ],
            "min" : [
                -0.00014960765838623047,
                -0.08316969871520996,
                -0.00452423095703125
            ],
            "type" : "VEC3"
        },
        {
            "bufferView" : 5,
            "componentType" : 5126,
            "count" : 66045,
            "type" : "VEC3"
        },
        {
            "bufferView" : 6,
            "componentType" : 5126,
            "count" : 2689,
            "max" : [
                0.8248762488365173,
                3.6442646980285645,
                1.0883314609527588
            ],
            "min" : [
                -0.8248762488365173,
                2.018251895904541,
                -0.9958804845809937
            ],
            "type" : "VEC3"
        },
        {
            "bufferView" : 7,
            "componentType" : 5126,
            "count" : 2689,
            "type" : "VEC3"
        },
        {
            "bufferView" : 8,
            "componentType" : 5126,
            "count" : 2689,
            "type" : "VEC2"
        },
        {
            "bufferView" : 9,
            "componentType" : 5123,
            "count" : 15360,
            "type" : "SCALAR"
        },
        {
            "bufferView" : 10,
            "componentType" : 5126,
            "count" : 2689,
            "max" : [
                0,
                0,
                0
            ],
            "min" : [
                0,
                0,
                0
            ],
            "type" : "VEC3"
        },
        {
            "bufferView" : 11,
            "componentType" : 5126,
            "count" : 2689,
            "type" : "VEC3"
        }
    ],
    "bufferViews" : [
        {
            "buffer" : 0,
            "byteLength" : 792540,
            "byteOffset" : 0,
            "target" : 34962
        },
        {
            "buffer" : 0,
            "byteLength" : 792540,
            "byteOffset" : 792540,
            "target" : 34962
        },
        {
            "buffer" : 0,
            "byteLength" : 528360,
            "byteOffset" : 1585080,
            "target" : 34962
        },
        {
            "buffer" : 0,
            "byteLength" : 1298400,
            "byteOffset" : 2113440,
            "target" : 34963
        },
        {
            "buffer" : 0,
            "byteLength" : 792540,
            "byteOffset" : 3411840,
            "target" : 34962
        },
        {
            "buffer" : 0,
            "byteLength" : 792540,
            "byteOffset" : 4204380,
            "target" : 34962
        },
        {
            "buffer" : 0,
            "byteLength" : 32268,
            "byteOffset" : 4996920,
            "target" : 34962
        },
        {
            "buffer" : 0,
            "byteLength" : 32268,
            "byteOffset" : 5029188,
            "target" : 34962
        },
        {
            "buffer" : 0,
            "byteLength" : 21512,
            "byteOffset" : 5061456,
            "target" : 34962
        },
        {
            "buffer" : 0,
            "byteLength" : 30720,
            "byteOffset" : 5082968,
            "target" : 34963
        },
        {
            "buffer" : 0,
            "byteLength" : 32268,
            "byteOffset" : 5113688,
            "target" : 34962
        },
        {
            "buffer" : 0,
            "byteLength" : 32268,
            "byteOffset" : 5145956,
            "target" : 34962
        }
    ],
    "samplers" : [
        {
            "magFilter" : 9729,
            "minFilter" : 9987
        }
    ],
    "buffers" : [
        {
            "byteLength" : 5178224,
            "uri" : "Smol Mayura ver 1.1 read friend.bin"
        }
    ]
}
