{
    "asset" : {
        "generator" : "Khronos glTF Blender I/O v3.3.27",
        "version" : "2.0"
    },
    "extensionsUsed" : [
        "KHR_materials_unlit",
        "KHR_materials_specular",
        "KHR_materials_ior"
    ],
    "scene" : 0,
    "scenes" : [
        {
            "name" : "Scene",
            "nodes" : [
                0
            ]
        }
    ],
    "nodes" : [
        {
            "mesh" : 0,
            "name" : "Smol Mayura",
            "rotation" : [
                0,
                0,
                0.33304327726364136,
                0.9429115653038025
            ]
        }
    ],
    "materials" : [
        {
            "alphaMode" : "BLEND",
            "doubleSided" : true,
            "extensions" : {
                "KHR_materials_unlit" : {}
            },
            "name" : "Mayura Color",
            "pbrMetallicRoughness" : {
                "baseColorTexture" : {
                    "index" : 0,
                    "texCoord" : 0
                },
                "metallicFactor" : 0,
                "roughnessFactor" : 0.9
            }
        },
        {
            "alphaMode" : "BLEND",
            "extensions" : {
                "KHR_materials_specular" : {
                    "specularColorFactor" : [
                        0,
                        0,
                        0
                    ]
                },
                "KHR_materials_ior" : {
                    "ior" : 1.4500000476837158
                }
            },
            "name" : "outline",
            "pbrMetallicRoughness" : {
                "baseColorFactor" : [
                    0,
                    0,
                    0,
                    1
                ],
                "metallicFactor" : 0,
                "roughnessFactor" : 0.5
            }
        }
    ],
    "meshes" : [
        {
            "name" : "Circle.011",
            "primitives" : [
                {
                    "attributes" : {
                        "POSITION" : 0,
                        "NORMAL" : 1,
                        "TEXCOORD_0" : 2
                    },
                    "indices" : 3,
                    "material" : 0
                },
                {
                    "attributes" : {
                        "POSITION" : 4,
                        "NORMAL" : 5,
                        "TEXCOORD_0" : 6
                    },
                    "indices" : 7,
                    "material" : 1
                }
            ]
        }
    ],
    "textures" : [
        {
            "sampler" : 0,
            "source" : 0
        }
    ],
    "images" : [
        {
            "mimeType" : "image/png",
            "name" : "Smol Mayura Colors",
            "uri" : "Smol%20Mayura%20Colors.png"
        }
    ],
    "accessors" : [
        {
            "bufferView" : 0,
            "componentType" : 5126,
            "count" : 38269,
            "max" : [
                1.29813814163208,
                1.272839069366455,
                3.938027858734131
            ],
            "min" : [
                -1.29813814163208,
                -1.496455192565918,
                0.006427220534533262
            ],
            "type" : "VEC3"
        },
        {
            "bufferView" : 1,
            "componentType" : 5126,
            "count" : 38269,
            "type" : "VEC3"
        },
        {
            "bufferView" : 2,
            "componentType" : 5126,
            "count" : 38269,
            "type" : "VEC2"
        },
        {
            "bufferView" : 3,
            "componentType" : 5123,
            "count" : 174366,
            "type" : "SCALAR"
        },
        {
            "bufferView" : 4,
            "componentType" : 5126,
            "count" : 33311,
            "max" : [
                1.3179042339324951,
                1.2920565605163574,
                3.95802640914917
            ],
            "min" : [
                -1.3179042339324951,
                -1.5092860460281372,
                -0.009360551834106445
            ],
            "type" : "VEC3"
        },
        {
            "bufferView" : 5,
            "componentType" : 5126,
            "count" : 33311,
            "type" : "VEC3"
        },
        {
            "bufferView" : 6,
            "componentType" : 5126,
            "count" : 33311,
            "type" : "VEC2"
        },
        {
            "bufferView" : 7,
            "componentType" : 5123,
            "count" : 165594,
            "type" : "SCALAR"
        }
    ],
    "bufferViews" : [
        {
            "buffer" : 0,
            "byteLength" : 459228,
            "byteOffset" : 0,
            "target" : 34962
        },
        {
            "buffer" : 0,
            "byteLength" : 459228,
            "byteOffset" : 459228,
            "target" : 34962
        },
        {
            "buffer" : 0,
            "byteLength" : 306152,
            "byteOffset" : 918456,
            "target" : 34962
        },
        {
            "buffer" : 0,
            "byteLength" : 348732,
            "byteOffset" : 1224608,
            "target" : 34963
        },
        {
            "buffer" : 0,
            "byteLength" : 399732,
            "byteOffset" : 1573340,
            "target" : 34962
        },
        {
            "buffer" : 0,
            "byteLength" : 399732,
            "byteOffset" : 1973072,
            "target" : 34962
        },
        {
            "buffer" : 0,
            "byteLength" : 266488,
            "byteOffset" : 2372804,
            "target" : 34962
        },
        {
            "buffer" : 0,
            "byteLength" : 331188,
            "byteOffset" : 2639292,
            "target" : 34963
        }
    ],
    "samplers" : [
        {
            "magFilter" : 9729,
            "minFilter" : 9987
        }
    ],
    "buffers" : [
        {
            "byteLength" : 2970480,
            "uri" : "Smol Mayura ver 1.1 read friend.bin"
        }
    ]
}
