{
    "asset" : {
        "generator" : "Khronos glTF Blender I/O v3.3.27",
        "version" : "2.0"
    },
    "extensionsUsed" : [
        "KHR_materials_unlit"
    ],
    "scene" : 0,
    "scenes" : [
        {
            "name" : "Scene",
            "nodes" : [
                0,
                1
            ]
        }
    ],
    "nodes" : [
        {
            "mesh" : 0,
            "name" : "outline",
            "rotation" : [
                0,
                -0.3330433666706085,
                0,
                0.9429115056991577
            ]
        },
        {
            "mesh" : 1,
            "name" : "Smol Mayura",
            "rotation" : [
                0,
                -0.3330433666706085,
                0,
                0.9429115056991577
            ]
        }
    ],
    "materials" : [
        {
            "extensions" : {
                "KHR_materials_unlit" : {}
            },
            "name" : "Mayura Color",
            "pbrMetallicRoughness" : {
                "baseColorTexture" : {
                    "index" : 0,
                    "texCoord" : 0
                },
                "metallicFactor" : 0,
                "roughnessFactor" : 0.9
            }
        }
    ],
    "meshes" : [
        {
            "name" : "Circle.002",
            "primitives" : [
                {
                    "attributes" : {
                        "POSITION" : 0,
                        "NORMAL" : 1,
                        "TEXCOORD_0" : 2
                    },
                    "indices" : 3,
                    "material" : 0
                }
            ]
        },
        {
            "name" : "Circle.011",
            "primitives" : [
                {
                    "attributes" : {
                        "POSITION" : 4,
                        "NORMAL" : 5,
                        "TEXCOORD_0" : 6
                    },
                    "indices" : 7,
                    "material" : 0
                }
            ]
        }
    ],
    "textures" : [
        {
            "sampler" : 0,
            "source" : 0
        }
    ],
    "images" : [
        {
            "mimeType" : "image/png",
            "name" : "Smol Mayura Colors",
            "uri" : "Smol%20Mayura%20Colors.png"
        }
    ],
    "accessors" : [
        {
            "bufferView" : 0,
            "componentType" : 5126,
            "count" : 30465,
            "max" : [
                1.220371127128601,
                3.902582883834839,
                1.4841276407241821
            ],
            "min" : [
                -1.325143575668335,
                -0.00936055462807417,
                -1.1574523448944092
            ],
            "type" : "VEC3"
        },
        {
            "bufferView" : 1,
            "componentType" : 5126,
            "count" : 30465,
            "type" : "VEC3"
        },
        {
            "bufferView" : 2,
            "componentType" : 5126,
            "count" : 30465,
            "type" : "VEC2"
        },
        {
            "bufferView" : 3,
            "componentType" : 5123,
            "count" : 165594,
            "type" : "SCALAR"
        },
        {
            "bufferView" : 4,
            "componentType" : 5126,
            "count" : 38273,
            "max" : [
                1.2126994132995605,
                3.886068105697632,
                1.4713249206542969
            ],
            "min" : [
                -1.3063616752624512,
                0.006335598882287741,
                -1.137559413909912
            ],
            "type" : "VEC3"
        },
        {
            "bufferView" : 5,
            "componentType" : 5126,
            "count" : 38273,
            "type" : "VEC3"
        },
        {
            "bufferView" : 6,
            "componentType" : 5126,
            "count" : 38273,
            "type" : "VEC2"
        },
        {
            "bufferView" : 7,
            "componentType" : 5123,
            "count" : 174366,
            "type" : "SCALAR"
        }
    ],
    "bufferViews" : [
        {
            "buffer" : 0,
            "byteLength" : 365580,
            "byteOffset" : 0,
            "target" : 34962
        },
        {
            "buffer" : 0,
            "byteLength" : 365580,
            "byteOffset" : 365580,
            "target" : 34962
        },
        {
            "buffer" : 0,
            "byteLength" : 243720,
            "byteOffset" : 731160,
            "target" : 34962
        },
        {
            "buffer" : 0,
            "byteLength" : 331188,
            "byteOffset" : 974880,
            "target" : 34963
        },
        {
            "buffer" : 0,
            "byteLength" : 459276,
            "byteOffset" : 1306068,
            "target" : 34962
        },
        {
            "buffer" : 0,
            "byteLength" : 459276,
            "byteOffset" : 1765344,
            "target" : 34962
        },
        {
            "buffer" : 0,
            "byteLength" : 306184,
            "byteOffset" : 2224620,
            "target" : 34962
        },
        {
            "buffer" : 0,
            "byteLength" : 348732,
            "byteOffset" : 2530804,
            "target" : 34963
        }
    ],
    "samplers" : [
        {
            "magFilter" : 9729,
            "minFilter" : 9987
        }
    ],
    "buffers" : [
        {
            "byteLength" : 2879536,
            "uri" : "Smol Mayura ver 1.1 read friend.bin"
        }
    ]
}
